<?xml version="1.0" encoding="utf-8"?>
<?xml-stylesheet href="../css/styles.css" type="text/css"?>
<svg class="nyc-illustration" height="500px" width="700px" version="1.1" x="0px" y="0px" viewBox="0 0 1400 980" enable-background="new 0 0 1400 980" xmlns="http://www.w3.org/2000/svg" xmlns:xlink="http://www.w3.org/1999/xlink">
  <g id="Background">
    <rect fill="#FFFFFF" width="1400" height="980"/>
  </g>
  <g id="Objects">
    <g>
      <g>
        <g/>
      </g>
      <g>
        <g/>
        <g/>
      </g>
    </g>
    <g>
      <g>
        <g transform="matrix(1, 0, 0, 1, 19.118828, -28.140705)">
          <g>
            <g >
              <ellipse class="illustration--sun" fill="#FDD947" cx="1124.8" cy="211.8" rx="38.9" ry="35.9"/>
            </g>
            <g>
              <path class="illustration--sun" fill="#FDD947" d="M1135,167.1l-10.2-19l-10.2,19c3.3-0.6,6.7-1,10.2-1S1131.7,166.4,1135,167.1z"/>
              <path class="illustration--sun" fill="#FDD947" d="M1076.3,202.4l-20.6,9.4l20.6,9.4c-0.7-3-1.1-6.2-1.1-9.4C1075.2,208.5,1075.6,205.4,1076.3,202.4z"/>
              <path class="illustration--sun" fill="#FDD947" d="M1114.6,256.5l10.2,19l10.2-19c-3.3,0.6-6.7,1-10.2,1S1117.8,257.1,1114.6,256.5z"/>
              <path class="illustration--sun" fill="#FDD947" d="M1173.2,221.2l20.6-9.4l-20.6-9.4c0.7,3,1.1,6.2,1.1,9.4C1174.3,215,1173.9,218.1,1173.2,221.2z"/>
              <path class="illustration--sun" fill="#FDD947" d="M1165.8,186.3l7-20.2l-21.6,7C1157,176.5,1162,181,1165.8,186.3z"/>
              <path class="illustration--sun" fill="#FDD947" d="M1096.5,174.2l-22-6.2l7.9,19.9C1086.1,182.5,1090.9,177.9,1096.5,174.2z"/>
              <path class="illustration--sun" fill="#FDD947" d="M1082.5,235.6l-7.9,19.9l22-6.2C1090.9,245.7,1086.1,241,1082.5,235.6z"/>
              <path class="illustration--sun" fill="#FDD947" d="M1151.4,250.2l21.7,6.9l-7.1-20.1C1162.2,242.3,1157.2,246.8,1151.4,250.2z"/>
            </g>
          </g>
        </g>
      </g>
      <g>
        <g>
          <g>
            <path fill="#DDF2F5" d="M1156.3,734.8H281.7c-12.1,0-22,8.5-22,19v0c0,10.5,9.8,19,22,19h874.6c12.1,0,22-8.5,22-19v0 C1178.3,743.4,1168.4,734.8,1156.3,734.8z"/>
            <path fill="#DDF2F5" d="M1181.2,658.6h-82.8c0,0,0.1-0.1,0.1-0.1l-2.8-0.2c-10.8-1.2-19.2-9.2-19.2-18.9c0-10.5,9.8-19,22-19 h24.3c12.1,0,22-8.5,22-19c0-10.5-9.8-19-22-19h-35.3c5.5-2.1,9.3-6.9,9.3-12.4c0-7.5-7-13.6-15.7-13.6h-26.7l1,0l-6.6-1.3 c-5.4-2.2-9.1-6.9-9.1-12.4c0-7.5,7-13.6,15.7-13.6h43.5c8.7,0,15.7-6.1,15.7-13.6v0c0-7.5-7-13.6-15.7-13.6h-82.2 c15.1,0,27.3-12.2,27.3-27.3v0c0-15.1-12.2-27.3-27.3-27.3h-5.1h-49h-37c-6-1.9-10.2-6.9-10.2-12.8c0-7.5,7-13.6,15.7-13.6 h29.7c8.7,0,15.7-6.1,15.7-13.6c0-7.5-7-13.6-15.7-13.6H400.3c-8.7,0-15.7,6.1-15.7,13.6c0,7.5,7,13.6,15.7,13.6h151.9 c8.7,0,15.7,6.1,15.7,13.6c0,5.8-4.2,10.8-10.2,12.8H357.2c-8.7,0-15.7,6.1-15.7,13.6c0,7.5,7,13.6,15.7,13.6h26.7 c8.7,0,15.7,6.1,15.7,13.6v0c0,5.9-4.3,10.9-10.4,12.8l-5.4,0.8l0,0h-88.7c-8.7,0-15.7,6.1-15.7,13.6v0c0,7.5,7,13.6,15.7,13.6 h376.5c8.7,0,15.7,6.1,15.7,13.6c0,7.5-7,13.6-15.7,13.6H351.8l0,0h-17.7c-8.7,0-15.7,6.1-15.7,13.6c0,5.5,3.8,10.3,9.3,12.4 h-84.5c-12.1,0-22,8.5-22,19c0,10.5,9.8,19,22,19h24.4c12.1,0,22,8.5,22,19c0,8.2-6.1,15.3-14.5,17.9l-7.5,1.1l0,0.1h-86.2 c-12.1,0-22,8.5-22,19v0c0,10.5,9.8,19,22,19h146.4c12.1,0,22,8.5,22,19c0,10.5-9.8,19-22,19h792.8c-12.1,0-22-8.5-22-19 c0-10.5,9.8-19,22-19h60.7c12.1,0,22-8.5,22-19v0C1203.2,667.1,1193.3,658.6,1181.2,658.6z"/>
          </g>
          <g>
            <path fill="#FFFFFF" d="M936.8,470.5H541.8c-5.3,0-9.6,4.3-9.6,9.6c0,5.3,4.3,9.6,9.6,9.6h395.1c5.3,0,9.6-4.3,9.6-9.6 C946.5,474.8,942.2,470.5,936.8,470.5z"/>
            <circle fill="#FFFFFF" cx="985.3" cy="479.3" r="9.4"/>
          </g>
          <g>
            <path fill="#DDF2F5" d="M1049,372.2H729.9c-8.1,0-14.7,5.7-14.7,12.8l0,0c0,7.1,6.6,12.8,14.7,12.8H1049 c8.1,0,14.7-5.7,14.7-12.8l0,0C1063.8,377.9,1057.2,372.2,1049,372.2z"/>
            <path fill="#DDF2F5" d="M1065.7,321h-55.5c0,0,0,0,0,0l-1.9-0.1c-7.3-0.8-12.9-6.2-12.9-12.7v0c0-7.1,6.6-12.8,14.7-12.8h16.3 c8.1,0,14.7-5.7,14.7-12.8v0c0-7.1-6.6-12.8-14.7-12.8H868c-8.1,0-14.7,5.7-14.7,12.8v0c0,7.1,6.6,12.8,14.7,12.8h16.3 c8.1,0,14.7,5.7,14.7,12.8v0c0,5.5-4.1,10.2-9.7,12l-5,0.8l0,0H662.6c-8.1,0-14.7,5.7-14.7,12.8v0c0,7.1,6.6,12.8,14.7,12.8 h98.1c8.1,0,14.7,5.7,14.7,12.8l0,0c0,7.1-6.6,12.8-14.7,12.8H1025c-8.1,0-14.7-5.7-14.7-12.8l0,0c0-7.1,6.6-12.8,14.7-12.8 h40.7c8.1,0,14.7-5.7,14.7-12.8v0C1080.5,326.8,1073.9,321,1065.7,321z"/>
          </g>
        </g>
        <rect x="532.8" y="502.1" fill="#DFA36F" width="92.9" height="213.6"/>
        <rect x="715.2" y="539.6" fill="#5B6C96" width="100" height="213.6"/>
        <g>
          <path fill="#DDF2F5" d="M972.5,274.4c-2.4-4.8-7.4-8.1-13.1-8.1c-0.6,0-1.2,0-1.8,0.1c0,0,0-0.1,0-0.1c0-13.3-10.8-24-24-24 c-2.5,0-5,0.4-7.3,1.1c-4.7-14.3-18.1-24.6-34-24.6c-14.2,0-26.5,8.3-32.2,20.3c-4.2-2.6-9.1-4.1-14.4-4.1 c-15,0-27.1,12.1-27.1,27.1c0,4.4,1.1,8.6,3,12.3H972.5z"/>
          <path fill="#DDF2F5" d="M481.3,420.9c0.3-1.5,0.5-3.1,0.5-4.7c0-12.8-10.4-23.1-23.1-23.1c-1.6,0-3.1,0.2-4.6,0.5 c-3.8-12.5-15.3-21.5-29-21.5c-1.9,0-3.7,0.2-5.5,0.5c-3.7-14.2-16.6-24.7-32-24.7c-13,0-24.2,7.5-29.6,18.4 c-1.1-0.3-2.2-0.4-3.4-0.4c-7.3,0-13.4,5.3-14.8,12.2c-0.8-0.1-1.6-0.1-2.5-0.1c-12.3,0-23,6.7-28.7,16.7 c-2.3-0.8-4.7-1.3-7.2-1.3c-11.3,0-20.5,9.2-20.5,20.5c0,2.5,0.5,4.9,1.3,7.1H481.3z"/>
          <path fill="#DDF2F5" d="M665.6,303.3c-1.3-5.9-5.7-10.7-11.4-12.5c0-0.3,0-0.5,0-0.8c0-6.1-4.9-11-11-11c-1.1,0-2.2,0.2-3.2,0.5 c-4.8-8.2-13.7-13.6-23.8-13.6c-9.4,0-17.6,4.7-22.6,11.8c-1.6-0.6-3.2-0.9-5-0.9c-6.4,0-11.8,4-13.9,9.6 c-0.4-0.1-0.9-0.1-1.4-0.1c-4.5,0-8.4,2.8-10,6.7c-2-0.8-4.1-1.3-6.4-1.3c-7.4,0-13.6,4.9-15.7,11.6H665.6z"/>
          <path fill="#DDF2F5" d="M464.5,314.1c-0.9-0.7-2-1.4-3-2.3c-0.5-0.4-1.1-0.9-1.6-1.4l-0.3-0.2l-0.2-0.2l-0.5-0.3 c-0.3-0.2-0.9-0.5-1.3-0.7c-0.9-0.3-1.8-0.5-2.7-0.4c-0.9,0-1.7,0.2-2.5,0.5c-0.8,0.2-1.4,0.6-2,0.9c-0.6,0.3-1.1,0.7-1.6,1.1 c-0.7,0.5-1.2,1-1.7,1.4c-0.4-0.4-1-0.9-1.7-1.4c-0.5-0.4-1-0.7-1.6-1.1c-0.6-0.3-1.3-0.7-2-0.9c-0.8-0.2-1.6-0.5-2.5-0.5 c-0.9-0.1-1.8,0.1-2.7,0.4c-0.4,0.2-1,0.5-1.3,0.7l-0.5,0.3l-0.2,0.2l-0.3,0.2c-0.5,0.5-1.1,1-1.6,1.4c-1.1,0.9-2.1,1.6-3,2.3 c-1.8,1.3-3.2,2.1-3.2,2.1s1.6,0,3.9-0.8c0.6-0.2,1.2-0.4,1.8-0.7c0.6-0.3,1.3-0.6,1.9-1c0.6-0.4,1.3-0.8,1.9-1.3l0.1-0.1l0.1,0 l0,0l0,0l0,0c0.1-0.1-0.1,0.1-0.1,0.1l0.2-0.2l0.5-0.3c0.3-0.2,0.5-0.2,0.7-0.4c0.6-0.2,1.1-0.3,1.8-0.3c0.6,0,1.3,0,1.9,0.2 c0.6,0.1,1.3,0.3,1.8,0.5c0.6,0.2,1.2,0.4,1.7,0.6c0.7,0.3,1.3,0.5,1.8,0.7c0,0-0.1,0.1-0.1,0.1c-0.1,0-0.1,0-0.2,0 c-0.5,0.1-1,0.2-1.4,0.4c-0.8,0.3-1.3,0.7-1.3,0.7s0.6,0,1.4,0c0.8,0,1.9,0,2.9,0c0.5,0,1.1,0,1.6,0c0.5,0,1,0,1.4,0 c0.8,0,1.4-0.1,1.4-0.1s-0.5-0.3-1.3-0.7c-0.8-0.3-1.9-0.6-3.1-0.6c-0.1,0-0.1,0-0.2,0c0,0,0,0,0,0c0.5-0.2,1.1-0.5,1.8-0.7 c0.5-0.2,1.1-0.4,1.7-0.6c0.6-0.2,1.2-0.4,1.8-0.5c0.6-0.1,1.3-0.2,1.9-0.2c0.6,0,1.2,0.1,1.8,0.3c0.2,0.1,0.4,0.2,0.7,0.4 l0.5,0.3l0.2,0.2c0,0-0.1-0.1-0.1-0.1l0,0l0,0l0,0l0.1,0l0.1,0.1c0.6,0.5,1.3,0.9,1.9,1.3c0.6,0.4,1.3,0.7,1.9,1 c0.6,0.3,1.2,0.5,1.8,0.7c2.2,0.8,3.9,0.8,3.9,0.8S466.3,315.4,464.5,314.1z"/>
          <path fill="#DDF2F5" d="M420.2,225.9c-0.7-0.5-1.4-1-2.2-1.6c-0.4-0.3-0.8-0.6-1.1-1l-0.2-0.2l-0.2-0.1l-0.3-0.2 c-0.2-0.2-0.6-0.3-0.9-0.5c-0.6-0.2-1.3-0.4-1.9-0.3c-0.6,0-1.2,0.2-1.8,0.3c-0.5,0.2-1,0.4-1.4,0.7c-0.4,0.2-0.8,0.5-1.2,0.8 c-0.5,0.4-0.9,0.7-1.2,1c-0.3-0.3-0.7-0.7-1.2-1c-0.3-0.3-0.7-0.5-1.2-0.8c-0.4-0.2-0.9-0.5-1.4-0.7c-0.5-0.2-1.1-0.3-1.8-0.3 c-0.6,0-1.3,0.1-1.9,0.3c-0.3,0.2-0.7,0.3-0.9,0.5l-0.3,0.2l-0.2,0.1l-0.2,0.2c-0.4,0.3-0.8,0.7-1.1,1c-0.8,0.6-1.5,1.2-2.2,1.6 c-1.3,0.9-2.3,1.5-2.3,1.5s1.2,0,2.7-0.6c0.4-0.1,0.8-0.3,1.3-0.5c0.4-0.2,0.9-0.4,1.3-0.7c0.4-0.3,0.9-0.6,1.4-0.9l0.1-0.1l0,0 l0,0l0,0l0,0c0.1,0-0.1,0.1-0.1,0l0.2-0.1l0.3-0.2c0.2-0.2,0.4-0.2,0.5-0.3c0.4-0.1,0.8-0.2,1.3-0.2c0.4,0,0.9,0,1.3,0.1 c0.4,0.1,0.9,0.2,1.3,0.4c0.4,0.2,0.8,0.3,1.2,0.4c0.5,0.2,0.9,0.4,1.3,0.5c0,0-0.1,0.1-0.1,0.1c0,0-0.1,0-0.1,0 c-0.4,0.1-0.7,0.2-1,0.3c-0.6,0.2-0.9,0.5-0.9,0.5s0.4,0,1,0c0.6,0,1.3,0,2.1,0c0.4,0,0.8,0,1.1,0c0.4,0,0.7,0,1,0 c0.6,0,1,0,1,0s-0.3-0.2-0.9-0.5c-0.6-0.2-1.4-0.4-2.2-0.4c-0.1,0-0.1,0-0.2,0c0,0,0,0,0,0c0.4-0.2,0.8-0.3,1.3-0.5 c0.4-0.1,0.8-0.3,1.2-0.4c0.4-0.1,0.9-0.3,1.3-0.4c0.4-0.1,0.9-0.1,1.3-0.1c0.4,0,0.9,0.1,1.3,0.2c0.2,0.1,0.3,0.1,0.5,0.3 l0.3,0.2l0.2,0.1c0,0-0.1-0.1-0.1,0l0,0l0,0l0,0l0,0l0.1,0.1c0.4,0.4,0.9,0.7,1.4,0.9c0.4,0.3,0.9,0.5,1.3,0.7 c0.4,0.2,0.9,0.4,1.3,0.5c1.6,0.6,2.7,0.6,2.7,0.6S421.5,226.8,420.2,225.9z"/>
          <path fill="#DDF2F5" d="M390.3,299.5c-0.5-0.3-1-0.7-1.6-1.2c-0.3-0.2-0.6-0.5-0.8-0.7l-0.1-0.1l-0.1-0.1l-0.2-0.2 c-0.2-0.1-0.4-0.2-0.7-0.4c-0.5-0.2-0.9-0.3-1.4-0.2c-0.5,0-0.9,0.1-1.3,0.2c-0.4,0.1-0.7,0.3-1.1,0.5c-0.3,0.2-0.6,0.4-0.8,0.6 c-0.4,0.3-0.6,0.5-0.9,0.7c-0.2-0.2-0.5-0.5-0.9-0.7c-0.2-0.2-0.5-0.4-0.8-0.6c-0.3-0.2-0.7-0.4-1.1-0.5 c-0.4-0.1-0.8-0.2-1.3-0.2c-0.5,0-0.9,0.1-1.4,0.2c-0.2,0.1-0.5,0.2-0.7,0.4l-0.2,0.2l-0.1,0.1l-0.1,0.1 c-0.3,0.2-0.5,0.5-0.8,0.7c-0.6,0.5-1.1,0.8-1.6,1.2c-1,0.7-1.7,1.1-1.7,1.1s0.8,0,2-0.4c0.3-0.1,0.6-0.2,0.9-0.4 c0.3-0.2,0.7-0.3,1-0.5c0.3-0.2,0.7-0.4,1-0.7l0.1,0l0,0l0,0l0,0l0,0c0,0,0,0,0,0l0.1-0.1l0.2-0.2c0.2-0.1,0.3-0.1,0.4-0.2 c0.3-0.1,0.6-0.2,0.9-0.2c0.3,0,0.7,0,1,0.1c0.3,0.1,0.6,0.2,1,0.3c0.3,0.1,0.6,0.2,0.9,0.3c0.4,0.1,0.7,0.3,0.9,0.4 c0,0,0,0-0.1,0.1c0,0-0.1,0-0.1,0c-0.3,0-0.5,0.1-0.7,0.2c-0.4,0.2-0.6,0.4-0.6,0.4s0.3,0,0.7,0c0.4,0,1,0,1.5,0 c0.3,0,0.6,0,0.8,0c0.3,0,0.5,0,0.7,0c0.4,0,0.7,0,0.7,0s-0.2-0.2-0.7-0.3c-0.4-0.2-1-0.3-1.6-0.3c0,0-0.1,0-0.1,0c0,0,0,0,0,0 c0.3-0.1,0.6-0.2,0.9-0.4c0.3-0.1,0.6-0.2,0.9-0.3c0.3-0.1,0.6-0.2,1-0.3c0.3-0.1,0.7-0.1,1-0.1c0.3,0,0.6,0.1,0.9,0.2 c0.1,0.1,0.2,0.1,0.4,0.2l0.2,0.2l0.1,0.1c0,0-0.1-0.1,0,0l0,0l0,0l0,0l0,0l0.1,0c0.3,0.3,0.7,0.5,1,0.7c0.3,0.2,0.7,0.4,1,0.5 c0.3,0.2,0.6,0.3,0.9,0.4c1.2,0.4,2,0.4,2,0.4S391.3,300.1,390.3,299.5z"/>
          <path fill="#DDF2F5" d="M739.4,221.8c-0.5-0.3-1-0.7-1.6-1.2c-0.3-0.2-0.6-0.5-0.8-0.7l-0.1-0.1l-0.1-0.1l-0.2-0.2 c-0.2-0.1-0.4-0.2-0.7-0.4c-0.5-0.2-0.9-0.3-1.4-0.2c-0.5,0-0.9,0.1-1.3,0.2c-0.4,0.1-0.7,0.3-1.1,0.5c-0.3,0.2-0.6,0.4-0.8,0.6 c-0.4,0.3-0.6,0.5-0.9,0.7c-0.2-0.2-0.5-0.5-0.9-0.7c-0.2-0.2-0.5-0.4-0.8-0.6c-0.3-0.2-0.7-0.4-1.1-0.5 c-0.4-0.1-0.8-0.2-1.3-0.2c-0.5,0-0.9,0.1-1.4,0.2c-0.2,0.1-0.5,0.2-0.7,0.4l-0.2,0.2l-0.1,0.1l-0.1,0.1 c-0.3,0.2-0.5,0.5-0.8,0.7c-0.6,0.5-1.1,0.8-1.6,1.2c-1,0.7-1.7,1.1-1.7,1.1s0.8,0,2-0.4c0.3-0.1,0.6-0.2,0.9-0.4 c0.3-0.2,0.7-0.3,1-0.5c0.3-0.2,0.7-0.4,1-0.7l0.1,0l0,0l0,0l0,0l0,0c0,0,0,0,0,0l0.1-0.1l0.2-0.2c0.2-0.1,0.3-0.1,0.4-0.2 c0.3-0.1,0.6-0.2,0.9-0.2c0.3,0,0.7,0,1,0.1c0.3,0.1,0.6,0.2,1,0.3c0.3,0.1,0.6,0.2,0.9,0.3c0.4,0.1,0.7,0.3,0.9,0.4 c0,0,0,0-0.1,0.1c0,0-0.1,0-0.1,0c-0.3,0-0.5,0.1-0.7,0.2c-0.4,0.2-0.6,0.4-0.6,0.4s0.3,0,0.7,0c0.4,0,1,0,1.5,0 c0.3,0,0.6,0,0.8,0c0.3,0,0.5,0,0.7,0c0.4,0,0.7,0,0.7,0s-0.2-0.2-0.7-0.3c-0.4-0.2-1-0.3-1.6-0.3c0,0-0.1,0-0.1,0c0,0,0,0,0,0 c0.3-0.1,0.6-0.2,0.9-0.4c0.3-0.1,0.6-0.2,0.9-0.3c0.3-0.1,0.6-0.2,1-0.3c0.3-0.1,0.7-0.1,1-0.1c0.3,0,0.6,0.1,0.9,0.2 c0.1,0.1,0.2,0.1,0.4,0.2l0.2,0.2l0.1,0.1c0,0-0.1-0.1,0,0l0,0l0,0l0,0l0,0l0.1,0c0.3,0.3,0.7,0.5,1,0.7c0.3,0.2,0.7,0.4,1,0.5 c0.3,0.2,0.6,0.3,0.9,0.4c1.2,0.4,2,0.4,2,0.4S740.4,222.4,739.4,221.8z"/>
          <path fill="#DDF2F5" d="M772.6,173.2c-1-0.7-2.1-1.5-3.2-2.4c-0.6-0.5-1.1-1-1.7-1.5l-0.3-0.3l-0.2-0.2l-0.5-0.4 c-0.3-0.2-0.9-0.5-1.4-0.7c-0.9-0.3-1.9-0.5-2.9-0.5c-1,0-1.8,0.3-2.6,0.5c-0.8,0.3-1.5,0.6-2.2,1c-0.6,0.4-1.2,0.8-1.7,1.1 c-0.7,0.6-1.3,1.1-1.8,1.5c-0.5-0.4-1-1-1.8-1.5c-0.5-0.4-1.1-0.8-1.7-1.1c-0.6-0.4-1.4-0.7-2.2-1c-0.8-0.2-1.7-0.5-2.6-0.5 c-0.9-0.1-1.9,0.1-2.9,0.5c-0.5,0.2-1,0.5-1.4,0.7l-0.5,0.4l-0.2,0.2l-0.3,0.3c-0.6,0.5-1.1,1-1.7,1.5c-1.1,0.9-2.2,1.7-3.2,2.4 c-2,1.4-3.4,2.3-3.4,2.3s1.7,0,4.1-0.9c0.6-0.2,1.2-0.5,1.9-0.8c0.7-0.3,1.3-0.7,2-1.1c0.7-0.4,1.4-0.9,2-1.4l0.1-0.1l0.1,0l0,0 l0,0l0,0c0.1-0.1-0.1,0.1-0.1,0.1l0.2-0.2l0.5-0.3c0.3-0.2,0.5-0.2,0.8-0.4c0.6-0.2,1.2-0.4,1.9-0.4c0.7,0,1.3,0,2,0.2 c0.7,0.2,1.3,0.3,2,0.5c0.6,0.2,1.2,0.5,1.8,0.7c0.7,0.3,1.4,0.6,1.9,0.8c0,0-0.1,0.1-0.1,0.1c-0.1,0-0.1,0-0.2,0 c-0.6,0.1-1.1,0.2-1.5,0.4c-0.9,0.3-1.3,0.8-1.3,0.8s0.6,0,1.5,0c0.9,0,2,0,3.1,0c0.6,0,1.1,0,1.7,0c0.5,0,1,0,1.5,0 c0.9,0,1.5-0.1,1.5-0.1s-0.5-0.4-1.4-0.7c-0.8-0.3-2-0.6-3.3-0.6c-0.1,0-0.1,0-0.2,0c0,0,0,0,0,0c0.6-0.2,1.2-0.5,1.9-0.8 c0.6-0.2,1.1-0.4,1.8-0.7c0.6-0.2,1.3-0.4,2-0.5c0.7-0.1,1.4-0.2,2-0.2c0.7,0,1.3,0.2,1.9,0.4c0.3,0.2,0.5,0.2,0.8,0.4l0.5,0.3 l0.2,0.2c0,0-0.2-0.1-0.1-0.1l0,0l0,0l0,0l0.1,0l0.1,0.1c0.7,0.5,1.3,1,2,1.4c0.7,0.4,1.3,0.8,2,1.1c0.6,0.3,1.3,0.6,1.9,0.8 c2.4,0.9,4.1,0.9,4.1,0.9S774.5,174.6,772.6,173.2z"/>
        </g>
        <g>
          <polygon fill="#A27344" points="1063.5,709.1 1063.4,677.4 1063.4,674.2 1063.4,659.7 1062,675.7 1062,675.8 1060.5,693.8 &#10;&#9;&#9;&#9;&#9;&#9;1050.3,683.4 1055.8,692.7 1056.7,694.3 1060,699.7 1057.7,727.1 1057.3,731.8 1054.5,775.1 1063.6,775.1 1063.5,715.2 &#10;&#9;&#9;&#9;&#9;&#9;1066.2,710.4 1067.7,707.5 1073.6,696.8 &#9;&#9;&#9;&#9;"/>
          <circle fill="#31A13F" cx="1061.7" cy="691.9" r="45.9"/>
        </g>
        <g>
          <g>
            <polygon fill="#C6D5D5" points="914.7,855.2 939,855.2 939,514.7 914.7,536.6 &#9;&#9;&#9;&#9;&#9;"/>
            <polygon fill="#C6D5D5" points="1033.3,514.7 1049.7,536.6 1049.7,855.2 1033.3,855.2 &#9;&#9;&#9;&#9;&#9;"/>
            <polygon fill="#F7F7F7" points="939,514.7 939,714.4 939,855.2 1033.3,855.2 1033.3,796.1 1033.3,514.7 &#9;&#9;&#9;&#9;&#9;"/>
          </g>
          <g>
            <rect x="952" y="533.3" fill="#C6D5D5" width="67.1" height="6.8"/>
            <rect x="952" y="556.6" fill="#C6D5D5" width="67.1" height="6.8"/>
            <rect x="952" y="580" fill="#C6D5D5" width="67.1" height="6.8"/>
            <rect x="952" y="603.3" fill="#C6D5D5" width="67.1" height="6.8"/>
            <rect x="952" y="626.6" fill="#C6D5D5" width="67.1" height="6.8"/>
            <rect x="952" y="649.9" fill="#C6D5D5" width="67.1" height="6.8"/>
            <rect x="952" y="673.3" fill="#C6D5D5" width="67.1" height="6.8"/>
            <rect x="952" y="696.6" fill="#C6D5D5" width="67.1" height="6.8"/>
            <rect x="952" y="719.9" fill="#C6D5D5" width="67.1" height="6.8"/>
            <rect x="952" y="743.2" fill="#C6D5D5" width="67.1" height="6.8"/>
            <rect x="952" y="766.5" fill="#C6D5D5" width="67.1" height="6.8"/>
            <rect x="952" y="789.9" fill="#C6D5D5" width="67.1" height="6.8"/>
            <rect x="952" y="813.2" fill="#C6D5D5" width="67.1" height="6.8"/>
            <rect x="952" y="836.5" fill="#C6D5D5" width="67.1" height="6.8"/>
          </g>
        </g>
        <g>
          <g>
            <polygon fill="#DFA36F" points="464.4,454.7 429.8,447.4 429.8,798.6 464.4,798.6 &#9;&#9;&#9;&#9;&#9;"/>
            <polygon fill="#F3CB8D" points="429.8,447.4 345.1,460.2 345.1,798.6 429.8,798.6 &#9;&#9;&#9;&#9;&#9;"/>
          </g>
          <g>
            <g>
              <rect x="399.6" y="477.6" fill="#F2A681" width="16.5" height="8"/>
              <rect x="357.4" y="477.6" fill="#F2A681" width="33" height="8"/>
            </g>
            <g>
              <rect x="399.6" y="501.1" fill="#F2A681" width="16.5" height="8"/>
              <rect x="357.4" y="501.1" fill="#F2A681" width="33" height="8"/>
            </g>
            <g>
              <rect x="399.6" y="524.7" fill="#F2A681" width="16.5" height="8"/>
              <rect x="357.4" y="524.7" fill="#F2A681" width="33" height="8"/>
            </g>
            <g>
              <rect x="399.6" y="548.2" fill="#F2A681" width="16.5" height="8"/>
              <rect x="357.4" y="548.2" fill="#F2A681" width="33" height="8"/>
            </g>
            <g>
              <rect x="399.6" y="571.8" fill="#F2A681" width="16.5" height="8"/>
              <rect x="357.4" y="571.8" fill="#F2A681" width="33" height="8"/>
            </g>
            <g>
              <rect x="399.6" y="595.3" fill="#F2A681" width="16.5" height="8"/>
              <rect x="357.4" y="595.3" fill="#F2A681" width="33" height="8"/>
            </g>
            <g>
              <rect x="399.6" y="618.9" fill="#F2A681" width="16.5" height="8"/>
              <rect x="357.4" y="618.9" fill="#F2A681" width="33" height="8"/>
            </g>
            <g>
              <rect x="399.6" y="642.4" fill="#F2A681" width="16.5" height="8"/>
              <rect x="357.4" y="642.4" fill="#F2A681" width="33" height="8"/>
            </g>
            <g>
              <rect x="399.6" y="666" fill="#F2A681" width="16.5" height="8"/>
              <rect x="357.4" y="666" fill="#F2A681" width="33" height="8"/>
            </g>
            <g>
              <rect x="399.6" y="689.5" fill="#F2A681" width="16.5" height="8"/>
              <rect x="357.4" y="689.5" fill="#F2A681" width="33" height="8"/>
            </g>
            <g>
              <rect x="399.6" y="713.1" fill="#F2A681" width="16.5" height="8"/>
              <rect x="357.4" y="713.1" fill="#F2A681" width="33" height="8"/>
            </g>
            <g>
              <rect x="399.6" y="736.6" fill="#F2A681" width="16.5" height="8"/>
              <rect x="357.4" y="736.6" fill="#F2A681" width="33" height="8"/>
            </g>
            <g>
              <rect x="399.6" y="760.2" fill="#F2A681" width="16.5" height="8"/>
              <rect x="357.4" y="760.2" fill="#F2A681" width="33" height="8"/>
            </g>
            <g>
              <rect x="399.6" y="783.7" fill="#F2A681" width="16.5" height="8"/>
              <rect x="357.4" y="783.7" fill="#F2A681" width="33" height="8"/>
            </g>
          </g>
        </g>
        <g>
          <rect x="809.2" y="461.5" fill="#56AFCE" width="95.9" height="325.9"/>
          <rect x="818.8" y="435.4" fill="#3B9CBC" width="76.7" height="26.1"/>
          <rect x="836.3" y="412.8" fill="#56AFCE" width="41.8" height="22.7"/>
          <rect x="852.8" y="269.9" fill="#76CADF" width="8.7" height="142.9"/>
          <rect x="845.6" y="474.2" fill="#3B9CBC" width="8.7" height="305.4"/>
          <rect x="895.5" y="474.2" fill="#3B9CBC" width="6.7" height="15.8"/>
          <rect x="881.9" y="474.2" fill="#3B9CBC" width="6.7" height="15.8"/>
          <rect x="831.3" y="474.2" fill="#3B9CBC" width="6.7" height="15.8"/>
          <rect x="817.7" y="474.2" fill="#3B9CBC" width="6.7" height="15.8"/>
          <g>
            <rect x="792.1" y="584.4" fill="#76CADF" width="46.2" height="203"/>
            <rect x="799.1" y="499.9" fill="#76CADF" width="39.2" height="109.8"/>
            <g>
              <rect x="816.2" y="507" fill="#44AEC8" width="5.8" height="73.3"/>
              <rect x="827.8" y="507" fill="#44AEC8" width="5.8" height="73.3"/>
              <rect x="804.9" y="507" fill="#44AEC8" width="5.8" height="73.3"/>
              <rect x="811" y="590.3" fill="#44AEC8" width="5.8" height="189.3"/>
              <rect x="822.6" y="590.3" fill="#44AEC8" width="5.8" height="189.3"/>
              <rect x="799.7" y="590.3" fill="#44AEC8" width="5.8" height="189.3"/>
            </g>
          </g>
          <g>
            <rect x="880.7" y="584.4" fill="#76CADF" width="46.2" height="203"/>
            <rect x="880.7" y="499.9" fill="#76CADF" width="39.2" height="109.8"/>
            <g>
              <rect x="897" y="507" fill="#44AEC8" width="5.8" height="73.3"/>
              <rect x="885.3" y="507" fill="#44AEC8" width="5.8" height="73.3"/>
              <rect x="908.3" y="507" fill="#44AEC8" width="5.8" height="73.3"/>
              <rect x="902.2" y="590.3" fill="#44AEC8" width="5.8" height="189.3"/>
              <rect x="890.6" y="590.3" fill="#44AEC8" width="5.8" height="189.3"/>
              <rect x="913.5" y="590.3" fill="#44AEC8" width="5.8" height="189.3"/>
            </g>
          </g>
          <rect x="864.1" y="474.2" fill="#3B9CBC" width="8.7" height="305.4"/>
        </g>
        <g>
          <g>
            <rect x="481" y="521.3" fill="#687DAD" width="87.7" height="319.3"/>
            <rect x="458" y="521.3" fill="#5B6C96" width="23" height="319.3"/>
          </g>
          <g>
            <g>
              <g>
                <rect x="542.5" y="541.4" fill="#8EADCE" width="17.6" height="7.5"/>
                <rect x="497.6" y="541.4" fill="#8EADCE" width="35.2" height="7.5"/>
              </g>
            </g>
            <g>
              <g>
                <rect x="542.5" y="562.5" fill="#8EADCE" width="17.6" height="7.5"/>
                <rect x="497.6" y="562.5" fill="#8EADCE" width="35.2" height="7.5"/>
              </g>
            </g>
            <g>
              <g>
                <rect x="542.5" y="583.7" fill="#8EADCE" width="17.6" height="7.5"/>
                <rect x="497.6" y="583.7" fill="#8EADCE" width="35.2" height="7.5"/>
              </g>
            </g>
            <g>
              <g>
                <rect x="542.5" y="604.8" fill="#8EADCE" width="17.6" height="7.5"/>
                <rect x="497.6" y="604.8" fill="#8EADCE" width="35.2" height="7.5"/>
              </g>
            </g>
            <g>
              <g>
                <rect x="542.5" y="626" fill="#8EADCE" width="17.6" height="7.5"/>
                <rect x="497.6" y="626" fill="#8EADCE" width="35.2" height="7.5"/>
              </g>
            </g>
            <g>
              <g>
                <rect x="542.5" y="647.1" fill="#8EADCE" width="17.6" height="7.5"/>
                <rect x="497.6" y="647.1" fill="#8EADCE" width="35.2" height="7.5"/>
              </g>
            </g>
            <g>
              <g>
                <rect x="542.5" y="668.3" fill="#8EADCE" width="17.6" height="7.5"/>
                <rect x="497.6" y="668.3" fill="#8EADCE" width="35.2" height="7.5"/>
              </g>
            </g>
            <g>
              <g>
                <rect x="542.5" y="689.4" fill="#8EADCE" width="17.6" height="7.5"/>
                <rect x="497.6" y="689.4" fill="#8EADCE" width="35.2" height="7.5"/>
              </g>
            </g>
            <g>
              <g>
                <rect x="542.5" y="710.6" fill="#8EADCE" width="17.6" height="7.5"/>
                <rect x="497.6" y="710.6" fill="#8EADCE" width="35.2" height="7.5"/>
              </g>
            </g>
            <g>
              <g>
                <rect x="542.5" y="731.7" fill="#8EADCE" width="17.6" height="7.5"/>
                <rect x="497.6" y="731.7" fill="#8EADCE" width="35.2" height="7.5"/>
              </g>
            </g>
            <g>
              <g>
                <rect x="542.5" y="752.9" fill="#8EADCE" width="17.6" height="7.5"/>
                <rect x="497.6" y="752.9" fill="#8EADCE" width="35.2" height="7.5"/>
              </g>
            </g>
            <g>
              <g>
                <rect x="542.5" y="774" fill="#8EADCE" width="17.6" height="7.5"/>
                <rect x="497.6" y="774" fill="#8EADCE" width="35.2" height="7.5"/>
              </g>
            </g>
            <g>
              <g>
                <rect x="542.5" y="795.2" fill="#8EADCE" width="17.6" height="7.5"/>
                <rect x="497.6" y="795.2" fill="#8EADCE" width="35.2" height="7.5"/>
              </g>
            </g>
            <g>
              <g>
                <rect x="542.5" y="816.3" fill="#8EADCE" width="17.6" height="7.5"/>
                <rect x="497.6" y="816.3" fill="#8EADCE" width="35.2" height="7.5"/>
              </g>
            </g>
          </g>
        </g>
        <path fill="#8CA721" d="M512.4,727.3H741c0.6-2,0.9-4.1,0.9-6.2c0-12.7-10.3-23-23-23c-0.1,0-0.2,0-0.3,0 c-0.4-17.6-14.7-31.7-32.4-31.7c-5.7,0-11,1.5-15.7,4.1c-0.5-7.8-7-13.9-14.9-13.9c-1.1,0-2.2,0.1-3.3,0.4 c-4-12.9-16-22.2-30.2-22.2c-15.2,0-27.9,10.7-30.9,24.9c-3.7-2-7.9-3.1-12.4-3.1c-14.5,0-26.2,11.7-26.2,26.2 c0,1.8,0.2,3.5,0.5,5.2c-0.8-0.1-1.6-0.2-2.4-0.2c-9.1,0-16.5,7.4-16.5,16.5c0,0.6,0,1.1,0.1,1.7 C522.8,706.8,513.5,715.8,512.4,727.3z"/>
        <path fill="#8CA721" d="M648.9,731.6h228.6c0.6-2,0.9-4.1,0.9-6.2c0-12.7-10.3-23-23-23c-0.1,0-0.2,0-0.3,0 c-0.4-17.6-14.7-31.7-32.4-31.7c-5.7,0-11,1.5-15.7,4.1c-0.5-7.8-7-13.9-14.9-13.9c-1.1,0-2.2,0.1-3.3,0.4 c-4-12.9-16-22.2-30.2-22.2c-15.2,0-27.9,10.7-30.9,24.9c-3.7-2-7.9-3.1-12.4-3.1c-14.5,0-26.2,11.7-26.2,26.2 c0,1.8,0.2,3.5,0.5,5.2c-0.8-0.1-1.6-0.2-2.4-0.2c-9.1,0-16.5,7.4-16.5,16.5c0,0.6,0,1.1,0.1,1.7 C659.3,711.1,650,720.2,648.9,731.6z"/>
        <path fill="#76C6DC" d="M1227.3,841.5h-117.2c-6.9,0-12.4-5.6-12.4-12.4s5.6-12.4,12.4-12.4h43.7c4.7,0,8.4-3.8,8.4-8.4 c0-4.7-3.8-8.4-8.4-8.4H255.3c-4.7,0-8.4,3.8-8.4,8.4c0,4.7,3.8,8.4,8.4,8.4h-64.6c-6.9,0-12.4,5.6-12.4,12.4s5.6,12.4,12.4,12.4 h153c-7.4,0-13.4,6-13.4,13.4c0,7.4,6,13.4,13.4,13.4h883.5c7.4,0,13.4-6,13.4-13.4C1240.7,847.5,1234.7,841.5,1227.3,841.5z"/>
        <path fill="#31A13F" d="M450.8,773.9c2.3,0,4.5-0.5,6.5-1.4c0.5,1.5,1.1,2.9,1.9,4.2h188.1c-0.2-0.9-0.5-1.8-0.9-2.7 c4.8-2.3,8.2-7.2,8.2-12.9c0-5.3-2.9-10-7.2-12.4c0.4-1.7,0.7-3.4,0.7-5.2c0-11-8.3-20-19-21.1c0.7-2.5,1.1-5.1,1.1-7.8 c0-15.3-12.4-27.7-27.7-27.7c-11.2,0-20.7,6.6-25.1,16.1c-2.7-1.6-5.8-2.5-9.1-2.5c-7.6,0-14,4.7-16.6,11.3 c-2.7-2.1-6-3.3-9.6-3.3c-3,0-5.7,0.8-8.1,2.2c-5-7-13.1-11.6-22.4-11.6c-13.9,0-25.4,10.3-27.2,23.8c-1.8-0.4-3.6-0.6-5.5-0.6 c-12.3,0-22.5,9-24.5,20.8c-1.1-0.2-2.2-0.4-3.4-0.4c-8.6,0-15.6,7-15.6,15.6S442.2,773.9,450.8,773.9z"/>
        <path fill="#31A13F" d="M705.1,770.8h229.3c0.6-2,0.9-4.1,0.9-6.3c0-12.8-10.3-23.1-23.1-23.1c-0.1,0-0.2,0-0.3,0 c-0.4-17.6-14.8-31.8-32.5-31.8c-5.7,0-11.1,1.5-15.7,4.1c-0.5-7.8-7-13.9-14.9-13.9c-1.1,0-2.2,0.1-3.3,0.4 c-4-12.9-16.1-22.3-30.3-22.3c-15.2,0-27.9,10.7-31,25c-3.7-2-7.9-3.1-12.4-3.1c-14.5,0-26.3,11.8-26.3,26.3 c0,1.8,0.2,3.5,0.5,5.2c-0.8-0.1-1.6-0.2-2.5-0.2c-9.1,0-16.5,7.4-16.5,16.5c0,0.6,0,1.1,0.1,1.7 C715.6,750.2,706.3,759.3,705.1,770.8z"/>
        <path fill="#31A13F" d="M810.4,770.8h180.5c0.4-1.6,0.7-3.2,0.7-4.9c0-10-8.1-18.2-18.2-18.2c-0.1,0-0.1,0-0.2,0 c-0.3-13.9-11.6-25-25.6-25c-4.5,0-8.7,1.2-12.4,3.2c-0.4-6.1-5.5-11-11.7-11c-0.9,0-1.7,0.1-2.6,0.3 c-3.2-10.2-12.7-17.5-23.9-17.5c-12,0-22,8.4-24.4,19.7c-2.9-1.6-6.2-2.5-9.8-2.5c-11.4,0-20.7,9.3-20.7,20.7 c0,1.4,0.1,2.8,0.4,4.1c-0.6-0.1-1.3-0.2-1.9-0.2c-7.2,0-13,5.8-13,13c0,0.4,0,0.9,0.1,1.3C818.6,754.6,811.3,761.7,810.4,770.8z "/>
        <g>
          <g>
            <rect x="651.3" y="490.5" fill="#46957E" width="85" height="118.5"/>
            <polygon fill="#3C826D" points="651.3,560.9 736.2,502.9 736.2,492.6 651.3,492.6 &#9;&#9;&#9;&#9;&#9;"/>
            <rect x="712.2" y="352.1" fill="#377362" width="10.8" height="49.8"/>
            <rect x="677" y="352.1" fill="#377362" width="10.8" height="49.8"/>
            <polygon fill="#377362" points="736.2,404.4 717.9,435.4 758.1,463.8 780.8,441.1 &#9;&#9;&#9;&#9;&#9;"/>
            <polygon fill="#4CAEA1" points="662,371.6 641.6,372.4 640.5,286.6 656.6,286 &#9;&#9;&#9;&#9;&#9;"/>
            <path fill="#F3B941" d="M649.2,208.6c0,0-24.4,31.9,0,31.6C673.6,240.5,649.2,208.6,649.2,208.6z"/>
            <polygon fill="#377362" points="724.5,414.5 721.3,402.1 715,396 715,372.9 687.4,372.9 687.4,396 690.2,418.2 701.1,428.9 &#10;&#9;&#9;&#9;&#9;&#9;&#9;717.9,435.4 &#9;&#9;&#9;&#9;&#9;"/>
            <path fill="#46957E" d="M734,338.1l-12.7,4.2c0-0.1-0.1-0.1-0.1-0.2l11.5-12.9l-16.8,5.6l5.3-17.5L705.6,332l-4.9-18.5l-5,18.8 c-0.1,0-0.1,0-0.2,0l-15.9-15.1l5.6,18.6c-0.1,0-0.1,0.1-0.2,0.1l-17.2-5.7l10.2,11.5c0,0,0,0-0.1,0.1l-11.2-3.7l7.8,8.8 l7.2,9.1h34.8l5.9-5.3l0.2,0.2L734,338.1z"/>
            <polygon fill="#377362" points="649.1,254.7 638.6,254.7 643.9,310 649.1,310 654.4,310 659.7,254.7 &#9;&#9;&#9;&#9;&#9;"/>
            <path fill="#46957E" d="M649.2,237.5h-16c0,3.6,0.8,7.3,2.2,10.6l3.3,7.6h10.5h10.5l3.3-7.6c1.5-3.3,2.2-6.9,2.2-10.6H649.2z"/>
            <polygon fill="#377362" points="680.3,385.8 664.6,364.2 664.6,361.1 636.2,361.1 636.2,384.8 653,407.9 653,466.1 &#10;&#9;&#9;&#9;&#9;&#9;&#9;707.5,466.1 707.5,385.8 &#9;&#9;&#9;&#9;&#9;"/>
            <path fill="#4CAEA1" d="M684.8,357c0,0-0.6,28.8,14.8,28.8s16.9-14.9,16.9-28l-17.6-11.2l-11.5,7L684.8,357z"/>
            <path fill="#377362" d="M717.5,343.9c-4.3-3.6-10-5.1-15.5-5.2c-0.7,0-1.4,0.2-2,0.5c-0.6-0.3-1.3-0.5-2-0.5 c-5.6,0-11.2,1.5-15.5,5.2c-2.3,2-5.7,5.4-5.5,8.7c0,0.7,0.3,1.5,0.7,2.2c3.8,6,16.8-2.5,20.4-5.2c0.7-0.6,1.3-1.1,1.8-1.7 c0.5,0.5,1.1,1.1,1.8,1.7c3.6,2.8,16.6,11.2,20.4,5.2c0.4-0.7,0.7-1.4,0.7-2.2C723.2,349.3,719.8,345.8,717.5,343.9z"/>
            <path fill="#56B8AB" d="M648.5,273.5h-6.4c-2.7,0-4.8,2.2-4.8,4.8V291c0,2.7,2.2,4.8,4.8,4.8h6.4c6.2,0,11.2-5,11.2-11.2v0 C659.7,278.5,654.7,273.5,648.5,273.5z"/>
            <path fill="#4CAEA1" d="M723.8,399.2l0-0.1l-8.1-2.8c-0.4-0.1-0.7-0.2-0.7-0.2v13l-2.6,2.1l0,0l0,0l-56.6,39.2l-8,6.5v99.1 l88.4-60.4v-81V409v-4.6C733.2,402.9,728.2,400.9,723.8,399.2z"/>
            <rect x="733.7" y="422" transform="matrix(0.7656 0.6433 -0.6433 0.7656 470.2012 -378.2416)" fill="#41A196" width="41" height="68.1"/>
            <path fill="#56B8AB" d="M754.7,478.3l4.7,4.3c2,1.8,5,1.7,6.8-0.2l8.6-9.3c1.8-2,1.7-5-0.2-6.8l-4.7-4.3 c-4.5-4.2-11.6-4-15.8,0.5l0,0C749.9,467.1,750.2,474.1,754.7,478.3z"/>
            <g>
              <polygon fill="#377362" points="662,608.9 667.7,608.9 667.7,557.3 662,561.2 &#9;&#9;&#9;&#9;&#9;&#9;"/>
              <polygon fill="#377362" points="676.8,608.9 682.5,608.9 682.5,547.3 676.8,551.2 &#9;&#9;&#9;&#9;&#9;&#9;"/>
              <polygon fill="#377362" points="691.5,608.9 697.2,608.9 697.2,537.2 691.5,541.1 &#9;&#9;&#9;&#9;&#9;&#9;"/>
              <polygon fill="#377362" points="706.3,608.9 712,608.9 712,527.1 706.3,531 &#9;&#9;&#9;&#9;&#9;&#9;"/>
              <polygon fill="#377362" points="721,608.9 726.7,608.9 726.7,517 721,520.9 &#9;&#9;&#9;&#9;&#9;&#9;"/>
            </g>
            <g>
              <polygon fill="#56B8AB" points="725.7,482 647.8,535.3 647.8,542.5 725.7,489.3 &#9;&#9;&#9;&#9;&#9;&#9;"/>
              <polygon fill="#56B8AB" points="707,474.7 647.8,515.1 647.8,522.4 707,481.9 &#9;&#9;&#9;&#9;&#9;&#9;"/>
              <polygon fill="#56B8AB" points="690.7,466.1 647.8,495.4 647.8,502.7 690.7,473.4 &#9;&#9;&#9;&#9;&#9;&#9;"/>
            </g>
          </g>
          <g>
            <rect x="636.2" y="608.9" fill="#D49659" width="117.9" height="20.2"/>
            <rect x="636.2" y="712.5" fill="#A27344" width="117.9" height="20.2"/>
            <rect x="627.2" y="629.2" fill="#E4B45E" width="136" height="11.2"/>
            <rect x="627.2" y="701.3" fill="#E4B45E" width="136" height="11.2"/>
            <rect x="636.2" y="640.4" fill="#D49659" width="117.9" height="60.9"/>
            <g>
              <path fill="#A27344" d="M669.9,686.7v-28.7c0-5.5-4.5-10-10-10l0,0c-5.5,0-10,4.5-10,10v28.7H669.9z"/>
              <path fill="#A27344" d="M705.1,686.7v-28.7c0-5.5-4.5-10-10-10h0c-5.5,0-10,4.5-10,10v28.7H705.1z"/>
              <path fill="#A27344" d="M740.3,686.7v-28.7c0-5.5-4.5-10-10-10h0c-5.5,0-10,4.5-10,10v28.7H740.3z"/>
            </g>
            <rect x="613.6" y="732.7" fill="#D49659" width="163.1" height="31.8"/>
            <rect x="603.4" y="758.9" fill="#A27344" width="183.5" height="11.2"/>
          </g>
        </g>
        <g>
          <polygon fill="#A27344" points="345.9,693.9 354.6,685.2 347.5,689.7 353.3,673.8 343.2,692 343.2,644.8 346.7,634.4 &#10;&#9;&#9;&#9;&#9;&#9;343.2,640.1 343.1,618.5 341.8,642.3 341.8,642.3 341.8,642.3 340.2,669.2 330,653.8 335.5,667.5 327,665.6 336.5,669.9 &#10;&#9;&#9;&#9;&#9;&#9;339.7,678.1 337.4,718.9 332,714.7 327.7,699.1 329.7,712.9 320,705.4 337,725.9 334.2,774.5 343.3,774.5 343.2,701.1 &#9;&#9;&#9;&#9;"/>
          <ellipse fill="#8CA721" cx="339.7" cy="672.5" rx="32.5" ry="77.1"/>
        </g>
        <path fill="#138834" d="M1102.3,769.6H292.8c-20.7,0-37.5,12.2-37.5,27.3v2.8h884.5V797C1139.8,781.9,1123,769.6,1102.3,769.6z"/>
        <g>
          <path fill="#B3DCE9" d="M724.5,835.6h-226c-3.1,0-5.6,2.5-5.6,5.6v0c0,3.1,2.5,5.6,5.6,5.6h226c3.1,0,5.6-2.5,5.6-5.6v0 C730.1,838.2,727.6,835.6,724.5,835.6z"/>
          <path fill="#76C6DC" d="M919.2,882.4H808.3c-3.1,0-5.6,2.5-5.6,5.6v0c0,3.1,2.5,5.6,5.6,5.6h110.9c3.1,0,5.6-2.5,5.6-5.6v0 C924.8,884.9,922.3,882.4,919.2,882.4z"/>
          <path fill="#B3DCE9" d="M913.2,835.6h-19.4c-3.1,0-5.6,2.5-5.6,5.6l0,0c0,3.1,2.5,5.6,5.6,5.6h19.4c3.1,0,5.6-2.5,5.6-5.6v0 C918.8,838.2,916.3,835.6,913.2,835.6z"/>
          <path fill="#76C6DC" d="M736.7,889.8h-19.4c-3.1,0-5.6,2.5-5.6,5.6l0,0c0,3.1,2.5,5.6,5.6,5.6h19.4c3.1,0,5.6-2.5,5.6-5.6v0 C742.3,892.4,739.8,889.8,736.7,889.8z"/>
          <path fill="#B3DCE9" d="M464.5,841.3h-39.9c-3.1,0-5.6,2.5-5.6,5.6l0,0c0,3.1,2.5,5.6,5.6,5.6h39.9c3.1,0,5.6-2.5,5.6-5.6v0 C470.1,843.8,467.6,841.3,464.5,841.3z"/>
          <path fill="#B3DCE9" d="M858.2,835.6h-39.9c-3.1,0-5.6,2.5-5.6,5.6l0,0c0,3.1,2.5,5.6,5.6,5.6h39.9c3.1,0,5.6-2.5,5.6-5.6v0 C863.8,838.2,861.3,835.6,858.2,835.6z"/>
        </g>
      </g>
    </g>
  </g>
  <g class="cloud-front" style="">
    <path fill="#1A232C" d="M 1169.551 448.208 L 1169.551 446.803 C 1169.182 446.804 1168.883 446.837 1168.647 446.849 L 1168.717 448.252 L 1170.014 447.899 C 1167.058 435.959 1156.739 427.136 1144.426 427.133 C 1143.094 427.133 1141.815 427.268 1140.577 427.457 L 1140.771 428.847 L 1141.969 428.217 C 1136.082 415.914 1123.943 407.464 1109.919 407.462 C 1091.077 407.465 1075.644 422.704 1074.195 442.071 L 1075.531 442.18 L 1075.753 440.795 C 1074.677 440.605 1073.56 440.48 1072.398 440.48 C 1061.296 440.482 1052.297 449.915 1052.297 461.556 C 1052.297 473.196 1061.296 482.63 1072.398 482.631 L 1169.551 482.631 C 1178.988 482.63 1186.636 474.611 1186.637 464.717 C 1186.636 454.823 1178.988 446.804 1169.551 446.803 L 1169.551 449.613 C 1173.533 449.613 1177.125 451.302 1179.737 454.037 C 1182.346 456.774 1183.956 460.541 1183.957 464.717 C 1183.956 468.893 1182.346 472.66 1179.737 475.396 C 1177.125 478.132 1173.533 479.821 1169.551 479.821 L 1072.398 479.821 C 1067.583 479.821 1063.236 477.778 1060.079 474.471 C 1056.924 471.162 1054.977 466.604 1054.977 461.556 C 1054.977 456.507 1056.924 451.95 1060.079 448.641 C 1063.236 445.333 1067.583 443.29 1072.398 443.29 C 1073.375 443.29 1074.342 443.396 1075.307 443.567 C 1075.68 443.632 1076.056 443.532 1076.355 443.289 C 1076.653 443.045 1076.836 442.686 1076.866 442.291 C 1078.206 424.379 1092.488 410.27 1109.919 410.272 C 1122.896 410.271 1134.122 418.09 1139.573 429.478 C 1139.833 430.02 1140.392 430.325 1140.966 430.238 C 1142.121 430.061 1143.268 429.943 1144.426 429.943 C 1155.489 429.94 1164.761 437.877 1167.419 448.606 C 1167.579 449.249 1168.151 449.689 1168.786 449.655 C 1169.107 449.637 1169.357 449.612 1169.551 449.613 L 1169.551 448.208" style=""/>
  </g>
  <g transform="matrix(1.247647, 0, 0, 1.386824, 353.000458, 180.754974)" class="cloud-back" style="">
    <path fill="#FBFDFC" d="M6.576,15.756 C7.715,11.539 11.462,8.405 15.984,8.187 C18.35,4.065 22.785,1.282 27.877,1.282 C35.451,1.282 41.59,7.422 41.59,14.995 C41.59,15.386 41.564,15.77 41.531,16.153 C42.297,15.838 43.134,15.662 44.013,15.662 C47.615,15.662 50.536,18.582 50.536,22.185 C50.536,25.787 47.615,28.708 44.013,28.708 L8.321,28.708 L8.321,28.672 C8.098,28.695 7.871,28.708 7.641,28.708 C4.039,28.708 1.117,25.787 1.117,22.185 C1.117,18.946 3.481,16.266 6.576,15.756"/>
    <path fill="#1A232C" d="M6.576,15.756 L7.542,16.016 C8.569,12.212 11.952,9.381 16.033,9.186 C16.373,9.169 16.682,8.98 16.852,8.685 C19.048,4.86 23.156,2.282 27.877,2.282 C31.391,2.283 34.563,3.704 36.867,6.006 C39.169,8.309 40.589,11.481 40.59,14.995 C40.59,15.343 40.567,15.698 40.535,16.066 C40.505,16.412 40.659,16.753 40.939,16.959 C41.219,17.164 41.59,17.21 41.912,17.078 C42.562,16.81 43.268,16.662 44.013,16.661 C45.541,16.662 46.916,17.278 47.918,18.279 C48.919,19.282 49.536,20.656 49.536,22.185 C49.536,23.713 48.919,25.088 47.918,26.09 C46.916,27.091 45.541,27.707 44.013,27.708 L8.321,27.708 L8.321,28.708 L9.321,28.708 L9.321,28.672 C9.321,28.39 9.201,28.119 8.991,27.93 C8.782,27.741 8.5,27.649 8.219,27.677 C8.027,27.697 7.834,27.708 7.641,27.708 C6.113,27.707 4.738,27.091 3.735,26.09 C2.734,25.088 2.118,23.713 2.117,22.185 C2.115,19.444 4.12,17.174 6.739,16.742 C7.126,16.679 7.439,16.395 7.542,16.016 L6.576,15.756 L6.414,14.769 C2.843,15.357 0.119,18.447 0.117,22.185 C0.118,26.34 3.486,29.707 7.641,29.708 C7.908,29.708 8.169,29.693 8.423,29.667 L8.321,28.672 L7.321,28.672 L7.321,28.708 C7.321,28.971 7.428,29.229 7.614,29.415 C7.8,29.601 8.058,29.708 8.321,29.708 L44.013,29.708 C48.168,29.707 51.535,26.34 51.536,22.185 C51.535,18.029 48.168,14.662 44.013,14.662 C43,14.661 42.032,14.865 41.151,15.228 L41.531,16.153 L42.528,16.239 C42.562,15.843 42.59,15.429 42.59,14.995 C42.589,6.869 36.004,0.283 27.877,0.282 C22.414,0.282 17.651,3.27 15.117,7.689 L15.984,8.187 L15.936,7.188 C10.972,7.429 6.861,10.865 5.611,15.495 L6.576,15.756 L6.414,14.769 L6.576,15.756"/>
  </g>
</svg>